<svg xmlns="http://www.w3.org/2000/svg">
        <symbol id="suncloud" viewBox="0 0 1300 500">
            <g>
				<path d="M223.69,100.079c1.428,1.027,3.078,1.521,4.713,1.521c2.514,0,4.991-1.168,6.571-3.365l18.933-26.332c2.606-3.625,1.781-8.677-1.844-11.283c-3.626-2.606-8.677-1.782-11.283,1.844l-18.933,26.333C219.241,92.422,220.067,97.473,223.69,100.079z"/>
				<path d="M65.877,205.138c0.465,2.89,1.065,5.783,1.786,8.598c0.935,3.653,4.221,6.081,7.826,6.081c0.664,0,1.339-0.082,2.011-0.254c4.325-1.107,6.933-5.511,5.826-9.837c-0.598-2.339-1.098-4.746-1.484-7.151c-6.866-42.756,22.163-83.148,64.71-90.041c23.149-3.749,46.522,3.043,64.135,18.635c3.345,2.96,8.453,2.648,11.412-0.695c2.959-3.343,2.648-8.452-0.695-11.412c-21.259-18.82-49.485-27.017-77.437-22.488C92.63,104.891,57.6,153.593,65.877,205.138z"
					/>
				<path d="M132.128,73.77c0.638,3.974,4.072,6.804,7.972,6.804c0.426,0,0.858-0.033,1.291-0.104c4.409-0.708,7.408-4.855,6.7-9.263l-5.149-32.066c-0.708-4.409-4.861-7.407-9.263-6.7c-4.409,0.708-7.408,4.855-6.7,9.263L132.128,73.77z"/>
				<path d="M459.243,170.759c-34.291-34.647-79.675-53.727-127.791-53.727c-65.599,0-126.133,35.828-157.981,93.502c-2.158,3.908-0.739,8.826,3.169,10.985c3.91,2.159,8.827,0.739,10.985-3.169c29.003-52.521,84.115-85.149,143.828-85.149c43.766,0,85.067,17.378,116.299,48.931c31.455,31.781,48.528,73.673,48.072,117.959c-0.886,86.143-68.571,157.773-154.092,163.071c-0.64,0.04-10.28,0.332-10.28,0.332h-204.8c-60.295,0-109.856-49.274-110.479-109.84c-0.305-29.687,11.052-57.768,31.979-79.067c20.771-21.14,48.357-32.901,77.677-33.115c11.284-0.094,23.008,1.715,34.778,5.344c6.627,2.043,20.513,8.941,24.528,11.463c32.562,20.455,52.001,55.67,52.001,94.202c0,4.465,3.62,8.084,8.084,8.084c4.465,0,8.084-3.62,8.084-8.084c0-44.127-22.268-84.461-59.567-107.892c-4.79-3.01-20.062-10.664-28.366-13.224c-13.353-4.116-26.69-6.163-39.66-6.062c-33.648,0.247-65.288,13.725-89.092,37.952c-23.961,24.385-36.963,56.55-36.614,90.565c0.346,33.683,13.67,65.297,37.515,89.018c23.873,23.746,55.527,36.824,89.131,36.824h204.8c0,0,12.759-0.185,13.65-0.525c44.602-3.351,86.103-23.093,117.089-55.752c31.639-33.348,49.324-77.076,49.798-123.128C512.491,251.621,493.758,205.631,459.243,170.759z"/>
				<path d="M10,222.286c0.429,0,0.866-0.034,1.302-0.106l31.924-5.172c4.407-0.714,7.402-4.866,6.687-9.273c-0.714-4.408-4.867-7.402-9.273-6.687L8.716,206.22c-4.408,0.714-7.402,4.866-6.687,9.273C2.674,219.463,6.104,222.286,10,222.286z"/>
				<path d="M31.907,107.861l26.214,19.017c1.434,1.04,3.095,1.541,4.74,1.541c2.502,0,4.969-1.158,6.55-3.338c2.621-3.614,1.817-8.668-1.797-11.291L41.4,94.774c-3.614-2.621-8.668-1.816-11.291,1.797C27.489,100.185,28.293,105.24,31.907,107.861z"/>
			</g>
        </symbol>

        <symbol id="cloud" viewBox="0 0 1200 200">
            <path style="fill:#010002;" d="M230.396,389.574c-35.522,0-69.865-14.233-95.169-39.253c-8.437,3.633-17.598,5.544-26.832,5.544c-37.351,0-67.735-30.385-67.735-67.744c0-3.991,0.382-8.039,1.13-12.087C15.517,256.599,0,226.052,0,193.212c0-51.649,38.985-95.495,89.707-102.087c12.705-33.238,44.35-55.209,80.367-55.209c31.433,0,60.176,17.176,75.254,44.366c10.86-3.755,22.183-5.657,33.782-5.657c57.144,0,103.631,46.479,103.631,103.615c0,2.398-0.106,4.837-0.317,7.421c25.67,10.047,43.065,35.05,43.065,63.029c0,39.667-34.53,71.45-74.726,67.378C327.63,360.913,281.037,389.574,230.396,389.574zM138.641,330.26l4.308,4.658c22.89,24.76,53.949,38.399,87.447,38.399c46.365,0,88.87-27.304,108.289-69.572l2.666-5.828l6.283,1.236c3.381,0.667,6.779,1.008,10.104,1.008c28.385,0,51.486-23.101,51.486-51.486c0-23.044-15.534-43.431-37.765-49.568l-6.861-1.886l0.967-7.047c0.618-4.56,0.91-8.348,0.91-11.949c0-48.17-39.196-87.358-87.374-87.358c-11.957,0-23.573,2.398-34.546,7.121l-7.397,3.186l-3.251-7.364c-11.177-25.296-36.237-41.651-63.842-41.651c-30.694,0-57.469,19.663-66.63,48.934l-1.642,5.251l-5.487,0.423c-44.886,3.447-80.05,41.415-80.05,86.431c0,29.263,14.631,56.364,39.139,72.507l4.91,3.235l-1.544,5.674c-1.227,4.544-1.853,9.072-1.853,13.493c0,28.385,23.093,51.486,51.478,51.486c8.616,0,17.143-2.178,24.678-6.292L138.641,330.26z">
            </path>
        </symbol>

		<symbol id="cloud2" viewBox="0 0 600 600">
				<path d="M131.935,51.012c0-17.697-14.396-32.092-32.092-32.092c-5.62,0-11.066,1.448-15.896,4.21
				c-8.974-5.77-21.343-5.429-30.01,0.804c-5.909-5.488-13.696-8.58-21.844-8.58C14.396,15.354,0,29.749,0,47.446
				c0,17.697,14.396,32.092,32.092,32.092c0.178,0,0.359,0,0.536-0.004c2.493,12.251,13.386,21.398,26.207,21.398
				c12.933,0,23.749-9.228,26.214-21.444c4.544,2.354,9.628,3.615,14.792,3.615C117.539,83.104,131.935,68.709,131.935,51.012z
				 M99.843,75.972c-5.746,0-11.147-1.898-15.614-5.485c-1.083-0.874-2.58-1.027-3.827-0.411c-1.247,0.623-2.016,1.919-1.968,3.312
				l0.014,0.801c0,10.812-8.8,19.612-19.612,19.612c-10.293,0-18.888-8.033-19.567-18.292c-0.066-0.978-0.533-1.891-1.292-2.514
				c-0.641-0.529-1.445-0.815-2.267-0.815c-0.15,0-0.3,0.01-0.446,0.028c-1.038,0.132-2.1,0.199-3.172,0.199
				c-13.762,0-24.961-11.199-24.961-24.961c0-13.762,11.199-24.961,24.961-24.961c7.243,0,14.124,3.144,18.874,8.625
				c0.637,0.731,1.546,1.177,2.514,1.226c0.982,0.077,1.919-0.3,2.626-0.965c3.646-3.43,8.413-5.321,13.427-5.321
				c4.429,0,8.608,1.442,12.083,4.165c1.219,0.958,2.921,1.01,4.207,0.143c4.144-2.817,8.991-4.307,14.019-4.307
				c13.762,0,24.961,11.199,24.961,24.961C124.803,64.774,113.605,75.972,99.843,75.972z"/>
				<path d="M167.593,61.709c-10.711,0-20.273,5.829-25.184,15.106c-2.253-0.561-4.562-0.843-6.909-0.843
				c-15.729,0-28.526,12.797-28.526,28.526s12.797,28.526,28.526,28.526c10.708,0,20.267-5.833,25.184-15.106
				c2.25,0.561,4.562,0.843,6.909,0.843c15.729,0,28.526-12.797,28.526-28.526S183.322,61.709,167.593,61.709z M167.593,111.631
				c-2.605,0-5.157-0.463-7.577-1.379c-1.821-0.693-3.869,0.219-4.583,2.037c-3.231,8.263-11.056,13.605-19.932,13.605
				c-11.798,0-21.395-9.597-21.395-21.395c0-11.798,9.597-21.395,21.395-21.395c2.605,0,5.157,0.463,7.577,1.379
				c1.828,0.693,3.872-0.216,4.583-2.037c3.231-8.263,11.053-13.605,19.932-13.605c11.798,0,21.395,9.597,21.395,21.395
				C188.988,102.034,179.391,111.631,167.593,111.631z"/>
        </symbol>
</svg>
